<svg id="Layer_1" data-name="Layer 1" xmlns="http://www.w3.org/2000/svg" viewBox="0 0 2478.5 196.25"><title>Drift Automation BLACK</title><path d="M1037,196c25.85,0,45.94-7.14,59.7-21.24,13-13.31,19.86-32.89,19.86-56.62V3.12h-29V117.55c0,16.1-4.46,29.41-12.89,38.5-8.81,9.51-21.49,14.33-37.67,14.33-16,0-29.06-5-37.82-14.33-8.52-9.12-13-22.43-13-38.5V3.12h-29V118.4c0,23.48,6.92,42.93,20,56.27C991.05,188.81,1011.19,196,1037,196Z"/><polygon points="1225.15 192.58 1225.15 28.44 1283.56 28.44 1283.56 3.12 1137.75 3.12 1137.75 28.44 1196.43 28.44 1196.43 192.58 1225.15 192.58"/><path d="M1453.5,168.07C1470.6,150.28,1480,125.39,1480,98s-9.42-52.29-26.52-70.08A88.52,88.52,0,0,0,1423.34,7.4a105.18,105.18,0,0,0-77.51,0,88.47,88.47,0,0,0-30.17,20.51c-17.1,17.79-26.52,42.68-26.52,70.08s9.42,52.29,26.52,70.08a88.19,88.19,0,0,0,30.17,20.51,105.18,105.18,0,0,0,77.51,0A88.24,88.24,0,0,0,1453.5,168.07Zm-117-18.39c-11.46-13-17.78-31.35-17.78-51.69s6.32-38.83,17.78-51.79c11.92-13.47,28.55-20.59,48.09-20.59,19.33,0,35.88,7.12,47.88,20.59,11.6,13,18,31.42,18,51.79s-6.39,38.62-18,51.69c-12,13.54-28.58,20.7-47.88,20.7C1365.07,170.38,1348.44,163.22,1336.49,149.68Z"/><polygon points="1601.46 138.6 1546.63 3.23 1546.59 3.12 1505.73 3.12 1505.73 192.58 1534.46 192.58 1534.46 43.1 1595.33 192.47 1595.38 192.58 1607.54 192.58 1668.46 43.1 1668.46 192.58 1697.18 192.58 1697.18 3.12 1656.33 3.12 1601.46 138.6"/><path d="M1821.86,3.12h-35.69L1711,192.33l-.1.25h31.59l15.3-39.12h92.45l15.26,39,0,.12h31.59L1821.91,3.23Zm-55.7,124.73,37.72-99.35,38,99.35Z"/><polygon points="1879.95 28.44 1938.63 28.44 1938.63 192.58 1967.36 192.58 1967.36 28.44 2025.76 28.44 2025.76 3.12 1879.95 3.12 1879.95 28.44"/><rect x="2046.65" y="3.12" width="28.72" height="189.47"/><path d="M2235.28,7.4a105.21,105.21,0,0,0-77.52,0,88.52,88.52,0,0,0-30.16,20.51c-17.1,17.79-26.52,42.68-26.52,70.08s9.42,52.29,26.52,70.08a88.24,88.24,0,0,0,30.16,20.51,105.21,105.21,0,0,0,77.52,0,88.24,88.24,0,0,0,30.16-20.51C2282.54,150.28,2292,125.39,2292,98s-9.42-52.29-26.52-70.08A88.52,88.52,0,0,0,2235.28,7.4Zm9.12,142.28c-12,13.54-28.59,20.7-47.88,20.7-19.51,0-36.14-7.16-48.09-20.7-11.46-13-17.78-31.35-17.78-51.69s6.32-38.83,17.78-51.79c11.92-13.47,28.55-20.59,48.09-20.59,19.32,0,35.88,7.12,47.88,20.59,11.6,13,18,31.42,18,51.79S2256,136.61,2244.4,149.68Z"/><polygon points="2449.78 3.12 2449.78 144.47 2347.21 3.19 2347.15 3.12 2317.67 3.12 2317.67 192.58 2346.39 192.58 2346.39 47.83 2450.66 192.5 2450.72 192.58 2478.5 192.58 2478.5 3.12 2449.78 3.12"/><path d="M370.1,69.42c0-36.14-23.7-66.21-67.72-66.21H201.93V196.07h57V137.25h21.45l25.11,58.82h64.9l-34.15-68.24C351.2,120.31,370.1,102.67,370.1,69.42ZM293.64,92.36H258.93V54.1h34.71c9.59,0,18.62,5.83,18.62,18.95C312.26,86.53,303.23,92.36,293.64,92.36Z"/><polygon points="470.66 196.07 527.87 196.07 527.87 130.83 611.99 130.83 611.99 79.94 527.87 79.94 527.87 54.1 613.97 54.1 613.97 3.21 470.66 3.21 470.66 196.07"/><path d="M84.63,3.21H0V196.07H84.91c59.36,0,103.66-35,103.66-96.58S144.27,3.21,84.63,3.21Zm0,142H57.37V54.1H84.91c30.67,0,45.44,19.37,45.44,45.39C130.35,123.78,113.31,145.18,84.63,145.18Z"/><rect x="387.55" y="3.04" width="58.51" height="193.21"/><polygon points="827.87 153.46 904.21 153.46 919.47 192.46 919.52 192.58 951.1 192.58 875.88 3.23 875.83 3.12 865.35 3.12 858.57 30.31 858.56 30.36 895.84 127.85 834.25 127.85 827.92 153.23 827.87 153.46"/><polygon points="736.38 196.07 736.38 54.1 773.78 54.1 786.47 3.21 628.42 3.21 628.42 54.1 679.14 54.1 679.14 196.07 736.38 196.07"/></svg>